<?xml version="1.0" standalone="no"?>
<!DOCTYPE svg PUBLIC "-//W3C//DTD SVG 20010904//EN"
 "http://www.w3.org/TR/2001/REC-SVG-20010904/DTD/svg10.dtd">
<svg version="1.0" xmlns="http://www.w3.org/2000/svg"
 width="533.000000pt" height="533.000000pt" viewBox="0 0 533.000000 533.000000"
 preserveAspectRatio="xMidYMid meet">
<metadata>
Created by potrace 1.11, written by Peter Selinger 2001-2013
</metadata>
<g transform="translate(0.000000,533.000000) scale(0.100000,-0.100000)"
fill="#000000" stroke="none">
<path d="M2460 4810 c-6 -4 -13 -13 -14 -21 -8 -40 -29 -67 -50 -63 -11 3 -40
6 -63 8 -23 3 -58 12 -78 22 -88 41 -206 4 -295 -93 -29 -32 -72 -87 -94 -124
-23 -36 -47 -74 -53 -85 -20 -31 -63 -124 -68 -149 -2 -5 -14 -44 -28 -85 -33
-96 -75 -246 -81 -285 -16 -106 -20 -146 -21 -195 -1 -30 -5 -77 -10 -105 -5
-27 -9 -54 -10 -59 0 -5 -13 -11 -29 -13 -16 -2 -55 -17 -85 -34 -31 -16 -61
-29 -67 -29 -21 0 -251 -219 -287 -273 -10 -15 -31 -30 -46 -33 -34 -7 -64
-58 -70 -117 -1 -4 -21 -17 -46 -29 -26 -13 -45 -29 -45 -39 0 -23 -42 -65
-82 -83 -50 -22 -98 -70 -98 -98 0 -13 -13 -39 -28 -58 -86 -105 -102 -132
-102 -170 0 -21 -4 -41 -9 -44 -5 -3 -12 -18 -15 -33 -11 -42 -23 -123 -18
-119 8 9 43 -36 38 -50 -3 -7 -2 -13 2 -13 4 1 14 1 22 0 12 -1 12 -3 2 -10
-16 -10 -14 -20 6 -40 11 -11 11 -15 0 -22 -12 -8 -4 -13 15 -10 4 0 7 -3 7
-9 0 -5 -4 -10 -10 -10 -5 0 -6 -7 -3 -17 5 -12 3 -14 -8 -8 -8 5 -5 -1 5 -13
13 -15 15 -22 6 -22 -8 0 -9 -4 -3 -12 5 -7 8 -23 7 -36 0 -12 3 -22 8 -22 5
0 8 -6 5 -12 -2 -7 0 -21 5 -31 5 -9 5 -17 1 -17 -4 0 -9 -10 -9 -22 -1 -13
-4 -33 -7 -45 -3 -13 -1 -25 4 -28 5 -4 6 -12 2 -18 -11 -17 -13 -38 -3 -32 4
3 11 -2 14 -11 3 -8 2 -12 -4 -9 -6 3 -10 2 -10 -4 0 -5 4 -12 10 -16 5 -3 7
-12 4 -19 -3 -8 -1 -17 5 -21 6 -3 11 -15 11 -26 0 -10 4 -19 9 -19 5 0 8 -11
7 -24 0 -13 -5 -22 -10 -18 -5 3 -7 -2 -3 -11 3 -10 2 -17 -4 -17 -6 0 -7 -5
-4 -10 4 -6 1 -17 -5 -25 -8 -10 -9 -15 -2 -15 6 0 9 -6 6 -14 -3 -9 10 -21
39 -35 40 -19 62 -48 58 -74 -4 -23 -9 -44 -14 -57 -42 -103 -43 -179 -3 -217
32 -30 51 -29 82 2 22 23 27 24 40 10 19 -19 48 -19 67 -1 12 12 18 11 43 -10
39 -31 68 -30 93 4 l21 27 -3 -25 c-2 -14 -9 -36 -15 -50 -8 -21 -7 -29 11
-46 24 -24 67 -41 67 -26 0 5 16 30 35 55 40 52 48 92 46 217 -2 100 -5 127
-15 158 -5 16 -3 29 8 41 9 10 17 36 18 59 1 23 6 43 12 45 21 8 101 2 102 -8
0 -5 4 -21 8 -35 4 -16 1 -36 -8 -55 -9 -17 -16 -40 -16 -52 0 -12 -13 -49
-30 -81 -48 -94 -59 -288 -25 -432 10 -41 19 -97 20 -125 5 -88 16 -138 38
-178 12 -21 30 -52 39 -69 30 -55 68 -85 132 -106 79 -26 128 -21 246 24 57
21 160 98 160 119 0 3 11 18 24 32 14 15 23 30 20 35 -7 10 11 42 40 71 14 14
27 43 31 68 4 24 14 53 21 64 8 11 14 32 14 47 0 25 36 104 60 133 6 7 20 11
30 8 19 -5 25 -20 22 -53 -6 -57 2 -308 11 -365 3 -16 8 -48 12 -70 3 -22 9
-47 12 -55 3 -8 7 -24 9 -35 3 -23 26 -88 34 -95 4 -3 12 -25 19 -50 14 -49
44 -93 55 -82 4 3 4 0 1 -9 -7 -19 39 -64 55 -54 7 4 14 -2 17 -14 3 -12 16
-24 29 -27 13 -3 28 -12 35 -20 9 -11 15 -11 25 -3 9 8 14 8 14 1 0 -6 13 -10
28 -10 19 1 31 8 39 24 6 14 7 24 2 24 -5 0 -12 -7 -15 -15 -5 -13 -9 -13 -22
-3 -14 11 -15 10 -8 -6 7 -19 6 -19 -14 -1 -11 10 -20 23 -20 29 0 6 5 4 10
-4 9 -13 13 -12 29 7 11 13 23 23 27 23 4 0 -1 -9 -11 -20 -10 -11 -13 -20 -7
-20 6 0 14 5 17 10 4 6 16 8 28 4 21 -6 21 -6 -2 20 -14 14 -20 26 -15 26 5 0
18 -11 28 -25 15 -20 22 -23 38 -14 11 6 22 8 26 5 3 -3 0 -6 -7 -6 -7 0 -10
-4 -7 -8 2 -4 0 -14 -6 -22 -8 -12 -9 -12 -4 3 3 9 1 17 -4 17 -6 0 -10 -4
-10 -10 0 -5 -10 -9 -22 -7 -14 1 -23 -4 -26 -15 -2 -10 2 -18 8 -18 6 0 8 5
5 10 -3 6 -1 10 4 10 6 0 11 -4 11 -9 0 -12 24 -8 42 7 8 6 18 9 21 5 4 -3 9
2 13 11 3 9 12 16 20 16 8 0 14 5 14 11 0 5 5 7 10 4 6 -3 10 -2 10 4 0 5 -6
12 -12 15 -7 3 -3 3 10 0 13 -3 28 1 37 10 16 16 20 31 7 22 -5 -3 -9 1 -9 9
0 18 14 20 19 3 2 -6 10 -8 16 -4 22 14 83 118 78 133 -3 8 -1 11 4 8 9 -5 15
23 11 48 0 4 3 7 7 7 5 0 8 12 7 28 -1 24 8 56 35 117 19 45 32 92 36 135 3
25 11 59 19 75 53 115 54 122 49 363 -2 125 -6 237 -8 250 -3 12 -1 22 4 22 4
0 25 24 46 53 21 28 45 59 53 68 40 42 52 63 57 102 8 60 -27 142 -66 155 -15
6 -32 7 -36 2 -14 -12 -68 -27 -81 -23 -21 7 -15 31 10 39 12 4 36 17 53 30
17 13 36 24 42 24 6 0 20 14 32 30 12 17 18 30 14 30 -4 0 17 27 47 59 69 75
79 88 79 101 0 5 4 10 9 10 5 0 14 23 21 50 7 28 16 52 20 55 15 9 66 -25 118
-80 29 -30 57 -56 62 -56 6 -1 16 -2 23 -3 6 -1 20 1 29 6 11 5 25 1 45 -16
15 -13 53 -35 83 -49 30 -15 75 -44 100 -66 25 -22 50 -41 57 -41 6 0 24 -5
40 -11 74 -30 237 -29 319 2 55 21 133 63 144 79 28 40 66 80 76 80 20 0 39
32 40 69 2 61 4 71 13 71 5 0 16 -18 25 -40 8 -21 27 -47 41 -56 25 -16 27
-16 62 12 56 46 139 170 141 213 2 29 13 46 57 88 30 28 55 57 55 63 0 11 -35
67 -50 80 -25 23 -73 110 -75 136 -2 36 -44 128 -75 165 -67 80 -121 124 -190
157 -41 20 -79 36 -85 37 -5 1 -12 3 -15 4 -3 2 -27 4 -53 6 -27 2 -68 13 -92
24 -46 21 -78 20 -126 -5 -38 -19 -42 -52 -12 -86 14 -16 14 -18 -8 -27 -13
-4 -34 -5 -45 0 -16 6 -31 1 -55 -17 -18 -13 -29 -24 -25 -24 5 0 4 -6 -2 -12
-12 -15 4 -70 31 -108 15 -21 15 -26 -4 -61 -11 -22 -22 -39 -25 -39 -7 0 -89
82 -89 90 -1 15 -25 41 -69 74 -27 20 -61 49 -76 64 -15 15 -42 38 -60 52 -35
28 -35 33 -5 140 9 30 18 63 20 74 2 10 8 23 13 30 11 14 32 89 38 141 3 22
10 58 16 80 6 22 12 49 14 61 1 11 7 38 13 60 5 21 13 62 16 89 8 67 15 107
21 117 3 4 0 8 -6 8 -6 0 -8 4 -5 10 10 16 12 110 3 110 -5 0 -5 8 0 18 5 9 8
24 6 32 -1 8 -5 33 -9 55 -10 61 -53 185 -82 234 -50 86 -73 98 -206 107 -51
4 -94 8 -96 11 -3 2 -6 16 -8 31 -6 68 -14 80 -59 88 -16 3 -38 8 -49 11 -11
4 -24 7 -30 8 -5 0 -41 8 -80 17 -38 9 -122 28 -185 41 -63 14 -137 30 -165
36 -27 6 -61 14 -75 16 -83 17 -132 29 -185 45 -91 28 -143 38 -155 30z m-981
-2444 c6 -4 11 -18 11 -32 0 -24 40 -154 50 -164 22 -22 35 -72 34 -134 -1
-63 -6 -81 -43 -155 -39 -78 -63 -110 -84 -111 -14 0 -56 104 -60 150 -2 25 0
61 5 80 5 19 10 64 13 100 7 90 12 110 30 124 14 10 12 16 -20 48 -36 36 -54
96 -27 91 6 -2 12 1 12 7 0 10 60 7 79 -4z m1011 -1637 c0 -5 -4 -9 -8 -9 -5
0 -9 7 -9 15 0 8 4 12 9 9 4 -3 8 -9 8 -15z m315 1 c3 -5 1 -10 -4 -10 -6 0
-11 5 -11 10 0 6 2 10 4 10 3 0 8 -4 11 -10z m-154 -117 c13 -16 12 -17 -3 -4
-10 7 -18 15 -18 17 0 8 8 3 21 -13z m-1 -28 c0 -2 -9 -3 -19 -2 -11 0 -18 5
-15 9 4 6 34 0 34 -7z m120 -11 c0 -8 -19 -13 -24 -6 -3 5 1 9 9 9 8 0 15 -2
15 -3z m-386 -22 c3 -5 -1 -9 -9 -9 -8 0 -12 4 -9 9 3 4 7 8 9 8 2 0 6 -4 9
-8z m271 -2 c3 -6 -1 -7 -9 -4 -18 7 -21 14 -7 14 6 0 13 -4 16 -10z m49 -18
c3 -5 -1 -9 -9 -9 -8 0 -12 4 -9 9 3 4 7 8 9 8 2 0 6 -4 9 -8z m66 -2 c0 -5
-2 -10 -4 -10 -3 0 -8 5 -11 10 -3 6 -1 10 4 10 6 0 11 -4 11 -10z m-245 -9
c3 -5 2 -12 -3 -15 -5 -3 -9 1 -9 9 0 17 3 19 12 6z m39 -9 c3 -5 -1 -9 -9 -9
-8 0 -12 4 -9 9 3 4 7 8 9 8 2 0 6 -4 9 -8z m43 -15 c1 -11 1 -18 0 -16 -2 2
-8 11 -15 20 -9 12 -9 16 1 16 7 0 14 -9 14 -20z m-223 -5 c3 -5 -1 -9 -9 -9
-8 0 -12 4 -9 9 3 4 7 8 9 8 2 0 6 -4 9 -8z m277 -9 c13 -16 12 -17 -3 -4 -10
7 -18 15 -18 17 0 8 8 3 21 -13z m-121 -7 c0 -2 -8 -10 -17 -17 -16 -13 -17
-12 -4 4 13 16 21 21 21 13z m255 -6 c3 -6 -1 -7 -9 -4 -18 7 -21 14 -7 14 6
0 13 -4 16 -10z m-345 -21 c0 -5 -4 -9 -8 -9 -5 0 -9 7 -9 15 0 8 4 12 9 9 4
-3 8 -9 8 -15z m136 12 c-6 -9 -46 -22 -46 -15 0 3 10 9 23 14 29 11 29 11 23
1z m161 -6 c0 -8 -3 -13 -5 -10 -3 3 -11 -3 -19 -13 -16 -19 -7 4 10 26 12 15
14 15 14 -3z m-339 -19 c16 -20 16 -20 -2 -6 -10 8 -25 15 -33 16 -24 4 -27
13 -4 11 12 -1 30 -10 39 -21z m439 17 c-4 -3 -1 -13 6 -22 11 -14 10 -14 -5
-2 -16 12 -16 31 -1 31 4 0 3 -3 0 -7z m-322 -22 c-3 -6 3 -14 12 -20 10 -6
13 -11 8 -11 -13 0 -35 20 -35 32 0 4 5 8 11 8 5 0 8 -4 4 -9z m76 -14 c-10
-9 -11 -8 -5 6 3 10 9 15 12 12 3 -3 0 -11 -7 -18z m49 -31 c0 -6 -7 -1 -15
10 -8 10 -15 23 -15 28 0 6 7 1 15 -10 8 -10 15 -23 15 -28z m185 24 c18 -20
18 -21 0 -14 -14 6 -16 4 -10 -7 4 -8 4 -11 0 -6 -7 6 -16 47 -10 47 1 0 10
-9 20 -20z m-435 5 c0 -2 -6 -8 -13 -14 -10 -8 -14 -7 -14 2 0 8 6 14 14 14 7
0 13 -1 13 -2z m290 -11 c0 -2 -7 -4 -15 -4 -8 0 -15 4 -15 10 0 5 7 7 15 4 8
-4 15 -8 15 -10z m90 4 c0 -4 -4 -8 -9 -8 -6 0 -12 4 -15 8 -3 5 1 9 9 9 8 0
15 -4 15 -9z m-335 -8 c-3 -5 -1 -10 6 -10 7 0 10 -3 6 -6 -9 -9 -28 6 -22 17
4 5 8 9 11 9 3 0 2 -4 -1 -10z m120 -10 c-3 -5 -12 -10 -18 -10 -7 0 -6 4 3
10 19 12 23 12 15 0z m57 -21 c-1 -12 1 -20 4 -16 8 8 44 -10 44 -22 0 -5 -7
-12 -16 -15 -15 -6 -15 -4 -3 11 12 15 12 16 -3 10 -21 -8 -40 15 -31 38 4 11
2 16 -3 12 -6 -3 -16 -1 -24 4 -11 7 -8 8 10 5 19 -3 24 -9 22 -27z m137 8 c0
-9 -2 -8 -6 1 -2 6 -10 9 -15 6 -7 -4 -8 -2 -4 5 9 13 26 5 25 -12z m-262 7
c-3 -3 -12 -4 -19 -1 -8 3 -5 6 6 6 11 1 17 -2 13 -5z m220 -16 c-3 -8 -6 -5
-6 6 -1 11 2 17 5 13 3 -3 4 -12 1 -19z m-320 1 c-9 -6 -14 -16 -11 -22 4 -7
3 -8 -1 -4 -17 15 -12 33 9 34 19 2 19 1 3 -8z m141 3 c8 -6 2 -9 -18 -9 -20
0 -26 3 -18 9 7 4 15 8 18 8 3 0 11 -4 18 -8z m52 -7 c0 -8 -2 -15 -4 -15 -2
0 -6 7 -10 15 -3 8 -1 15 4 15 6 0 10 -7 10 -15z m90 0 c0 -8 6 -14 13 -12 6
1 12 -4 12 -12 0 -8 -6 -15 -13 -17 -7 -1 -8 0 -2 3 5 2 10 9 10 14 0 6 -5 7
-10 4 -6 -3 -13 1 -16 9 -3 9 -11 13 -17 9 -6 -3 -7 -1 -3 5 10 17 26 15 26
-3z m69 -11 c4 3 13 0 21 -5 11 -7 9 -8 -9 -6 -14 2 -26 9 -27 16 -1 6 0 7 3
1 2 -5 8 -8 12 -6z m-308 -20 c5 -15 8 -29 5 -31 -2 -2 -8 10 -14 26 -13 38
-5 41 9 5z m125 17 c-4 -5 0 -12 6 -14 8 -3 6 -6 -4 -6 -18 -1 -24 10 -11 22
9 10 15 8 9 -2z m-76 -11 c0 -5 -4 -10 -10 -10 -5 0 -10 5 -10 10 0 6 5 10 10
10 6 0 10 -4 10 -10z m56 -37 c-3 -3 -8 2 -12 11 -3 9 -10 13 -15 10 -5 -3 -6
2 -3 11 6 14 9 13 21 -5 8 -12 12 -24 9 -27z m-36 -4 c0 -6 -4 -7 -10 -4 -5 3
-10 11 -10 16 0 6 5 7 10 4 6 -3 10 -11 10 -16z m220 12 c0 -5 -7 -11 -14 -14
-10 -4 -13 -1 -9 9 6 15 23 19 23 5z m-245 -21 c3 -5 2 -10 -4 -10 -5 0 -13 5
-16 10 -3 6 -2 10 4 10 5 0 13 -4 16 -10z m25 -20 c0 -5 -5 -10 -11 -10 -5 0
-7 5 -4 10 3 6 8 10 11 10 2 0 4 -4 4 -10z"/>
<path d="M1430 2320 c0 -5 5 -10 10 -10 6 0 10 5 10 10 0 6 -4 10 -10 10 -5 0
-10 -4 -10 -10z"/>
<path d="M430 2169 c0 -11 5 -17 10 -14 6 3 10 13 10 21 0 8 -4 14 -10 14 -5
0 -10 -9 -10 -21z"/>
</g>
</svg>
